<svg width="102" height="63" viewBox="0 0 102 63" fill="none" xmlns="http://www.w3.org/2000/svg">
<path fill-rule="evenodd" clip-rule="evenodd" d="M13.1615 21.38C13.1654 9.57151 22.7392 0 34.5486 0C43.5353 0 51.2274 5.54267 54.3928 13.396C55.4347 13.2414 56.4988 13.1615 57.5804 13.1615C64.8406 13.1615 71.3161 16.7607 75.5377 22.3845C78.1989 20.7098 81.3491 19.741 84.7256 19.741C94.2659 19.741 102 27.4749 102 37.0152C102 46.5555 94.2659 54.2894 84.7256 54.2894C81.6901 54.2894 78.8375 53.5064 76.3587 52.1314C72.1839 58.4167 65.329 62.5164 57.5804 62.5164C50.1252 62.5164 43.4974 58.7214 39.2879 52.836C35.4676 58.6651 28.877 62.5152 21.3871 62.5152C9.57533 62.5152 0 52.9399 0 41.1281C0 32.2311 5.4326 24.603 13.1615 21.38Z" fill="#DED4BD"/>
</svg>
