<svg width="38" height="24" viewBox="0 0 38 24" fill="none" xmlns="http://www.w3.org/2000/svg">
<path fill-rule="evenodd" clip-rule="evenodd" d="M4.90323 7.96549C4.90444 3.56606 8.47125 0 12.871 0C16.2189 0 19.0846 2.06489 20.2639 4.99059C20.6521 4.93299 21.0486 4.90323 21.4516 4.90323C24.1565 4.90323 26.5691 6.24419 28.1418 8.33951C29.1332 7.71569 30.3067 7.35484 31.5645 7.35484C35.1187 7.35484 38 10.2361 38 13.7903C38 17.3445 35.1187 20.2258 31.5645 20.2258C30.4336 20.2258 29.3707 19.9341 28.4472 19.4218C26.8919 21.7631 24.3382 23.2903 21.4516 23.2903C18.6743 23.2903 16.2051 21.8765 14.6368 19.684C13.2137 21.8558 10.7582 23.2903 7.96774 23.2903C3.56728 23.2903 0 19.723 0 15.3226C0 12.0081 2.02386 9.16624 4.90323 7.96549Z" fill="#DED4BD"/>
</svg>
