<svg width="76" height="45" viewBox="0 0 76 45" fill="none" xmlns="http://www.w3.org/2000/svg">
<path fill-rule="evenodd" clip-rule="evenodd" d="M30.1492 35.9588C32.6579 37.2643 35.4953 38 38.5 38C40.5735 38 42.5674 37.6496 44.4285 37.0034C47.4032 41.7952 52.816 45 59 45C68.3888 45 76 37.6127 76 28.5C76 19.3873 68.3888 12 59 12C57.9107 12 56.8454 12.0994 55.8131 12.2895C53.1726 5.10761 46.4171 0 38.5 0C31.5255 0 25.4524 3.96383 22.3 9.81767C20.6322 9.28701 18.8506 9 17 9C7.61116 9 0 16.3873 0 25.5C0 34.6127 7.61116 42 17 42C22.2989 42 27.0315 39.647 30.1492 35.9588Z" fill="#DED4BD"/>
</svg>
